<svg xmlns="http://www.w3.org/2000/svg" xmlns:xlink="http://www.w3.org/1999/xlink" version="1.1" viewBox="0 0 620 620" >
	<metadata>
	    <rdf:RDF xmlns:rdf="http://www.w3.org/1999/02/22-rdf-syntax-ns#">
    		<rdf:Description rdf:about="">
				<author>Wei-Hsu Lin</author>
      		<license>Apache-2.0</license>
    		</rdf:Description>
  		</rdf:RDF>
	</metadata>
  <defs>
    <g id="unit">
            <rect x="0" y="0" width="20" height="20" fill="#f5f5f5"/>
    </g>
  </defs>
  <g id="row">
        <use href="#unit" transform="translate(0)"/>
        <use href="#unit" transform="translate(40)"/>
        <use href="#unit" transform="translate(80)"/>
        <use href="#unit" transform="translate(120)"/>
        <use href="#unit" transform="translate(160)"/>
        <use href="#unit" transform="translate(200)"/>
        <use href="#unit" transform="translate(240)"/>
        <use href="#unit" transform="translate(280)"/>
        <use href="#unit" transform="translate(320)"/>
        <use href="#unit" transform="translate(360)"/>
        <use href="#unit" transform="translate(400)"/>
        <use href="#unit" transform="translate(440)"/>
        <use href="#unit" transform="translate(480)"/>
        <use href="#unit" transform="translate(520)"/>
        <use href="#unit" transform="translate(560)"/>
        <use href="#unit" transform="translate(600)"/>
    </g>
    <use href="#row" transform="translate(-20,20)"/>
    <use href="#row" transform="translate(0,40)"/>
    <use href="#row" transform="translate(-20,60)"/>
    <use href="#row" transform="translate(0,80)"/>
    <use href="#row" transform="translate(-20,100)"/>
    <use href="#row" transform="translate(0,120)"/>
    <use href="#row" transform="translate(-20,140)"/>
    <use href="#row" transform="translate(0,160)"/>
    <use href="#row" transform="translate(-20,180)"/>
    <use href="#row" transform="translate(0,200)"/>
    <use href="#row" transform="translate(-20,220)"/>
    <use href="#row" transform="translate(0,240)"/>
    <use href="#row" transform="translate(-20,260)"/>
    <use href="#row" transform="translate(0,280)"/>
    <use href="#row" transform="translate(-20,300)"/>
    <use href="#row" transform="translate(0,320)"/>
    <use href="#row" transform="translate(-20,340)"/>
    <use href="#row" transform="translate(0,360)"/>
    <use href="#row" transform="translate(-20,380)"/>
    <use href="#row" transform="translate(0,400)"/>
    <use href="#row" transform="translate(-20,420)"/>
    <use href="#row" transform="translate(0,440)"/>
    <use href="#row" transform="translate(-20,460)"/>
    <use href="#row" transform="translate(0,480)"/>
    <use href="#row" transform="translate(-20,500)"/>
    <use href="#row" transform="translate(0,520)"/>
    <use href="#row" transform="translate(-20,540)"/>
    <use href="#row" transform="translate(0,560)"/>
    <use href="#row" transform="translate(-20,580)"/>
    <use href="#row" transform="translate(0,600)"/>
</svg>